<mxfile host="app.diagrams.net" agent="Mozilla/5.0 (Windows NT 10.0; Win64; x64) AppleWebKit/537.36 (KHTML, like Gecko) Chrome/141.0.0.0 Safari/537.36" version="28.2.8">
  <diagram name="Page-1" id="Pym4T96IEMmdsNur6Ta0">
    <mxGraphModel dx="1584" dy="1948" grid="1" gridSize="10" guides="1" tooltips="1" connect="1" arrows="1" fold="1" page="1" pageScale="1" pageWidth="850" pageHeight="1100" math="0" shadow="0">
      <root>
        <mxCell id="0" />
        <mxCell id="1" parent="0" />
        <mxCell id="TnTFWZ-Hbo-qFbYyvlhM-1" value="Student@blueinternethost" style="rounded=0;whiteSpace=wrap;html=1;" parent="1" vertex="1">
          <mxGeometry x="10" y="70" width="150" height="90" as="geometry" />
        </mxCell>
        <mxCell id="TnTFWZ-Hbo-qFbYyvlhM-2" value="Red-int-host&lt;div&gt;10.50.189.76&lt;/div&gt;&lt;div&gt;net2_student8&lt;/div&gt;&lt;div&gt;password8&lt;/div&gt;&lt;div&gt;eth0:10.0.0.33/27&lt;/div&gt;" style="rounded=0;whiteSpace=wrap;html=1;" parent="1" vertex="1">
          <mxGeometry x="230" y="70" width="120" height="100" as="geometry" />
        </mxCell>
        <mxCell id="TnTFWZ-Hbo-qFbYyvlhM-3" value="" style="endArrow=none;html=1;rounded=0;entryX=0;entryY=0.5;entryDx=0;entryDy=0;" parent="1" target="TnTFWZ-Hbo-qFbYyvlhM-2" edge="1">
          <mxGeometry width="50" height="50" relative="1" as="geometry">
            <mxPoint x="230" y="100" as="sourcePoint" />
            <mxPoint x="450" y="350" as="targetPoint" />
            <Array as="points">
              <mxPoint x="160" y="110" />
            </Array>
          </mxGeometry>
        </mxCell>
        <mxCell id="TnTFWZ-Hbo-qFbYyvlhM-4" value="Ports: 80, 22,23,3389,21" style="text;html=1;whiteSpace=wrap;strokeColor=none;fillColor=none;align=center;verticalAlign=middle;rounded=0;" parent="1" vertex="1">
          <mxGeometry x="240" y="170" width="60" height="30" as="geometry" />
        </mxCell>
        <mxCell id="H2GqUTHfgzoTLaugNAoa-30" style="edgeStyle=orthogonalEdgeStyle;rounded=0;orthogonalLoop=1;jettySize=auto;html=1;exitX=1;exitY=0.5;exitDx=0;exitDy=0;" edge="1" parent="1" source="TnTFWZ-Hbo-qFbYyvlhM-9">
          <mxGeometry relative="1" as="geometry">
            <mxPoint x="699.9999999999998" y="189.99999999999977" as="targetPoint" />
          </mxGeometry>
        </mxCell>
        <mxCell id="TnTFWZ-Hbo-qFbYyvlhM-9" value="172.16.120.10/29&lt;div&gt;172.16.101.30/27&lt;/div&gt;&lt;div&gt;RED-SCR&lt;/div&gt;&lt;div&gt;179/22&lt;/div&gt;" style="ellipse;whiteSpace=wrap;html=1;aspect=fixed;" parent="1" vertex="1">
          <mxGeometry x="320" y="200" width="100" height="100" as="geometry" />
        </mxCell>
        <mxCell id="TnTFWZ-Hbo-qFbYyvlhM-11" value="" style="endArrow=none;html=1;rounded=0;" parent="1" target="TnTFWZ-Hbo-qFbYyvlhM-77" edge="1">
          <mxGeometry width="50" height="50" relative="1" as="geometry">
            <mxPoint x="940" y="120" as="sourcePoint" />
            <mxPoint x="990" y="70" as="targetPoint" />
          </mxGeometry>
        </mxCell>
        <mxCell id="TnTFWZ-Hbo-qFbYyvlhM-15" value="" style="endArrow=none;html=1;rounded=0;entryX=0.875;entryY=1;entryDx=0;entryDy=0;entryPerimeter=0;" parent="1" source="TnTFWZ-Hbo-qFbYyvlhM-9" target="TnTFWZ-Hbo-qFbYyvlhM-2" edge="1">
          <mxGeometry width="50" height="50" relative="1" as="geometry">
            <mxPoint x="570" y="420" as="sourcePoint" />
            <mxPoint x="620" y="370" as="targetPoint" />
          </mxGeometry>
        </mxCell>
        <mxCell id="TnTFWZ-Hbo-qFbYyvlhM-21" value="" style="endArrow=none;dashed=1;html=1;dashPattern=1 3;strokeWidth=2;rounded=0;" parent="1" source="TnTFWZ-Hbo-qFbYyvlhM-34" edge="1">
          <mxGeometry width="50" height="50" relative="1" as="geometry">
            <mxPoint x="426" y="226" as="sourcePoint" />
            <mxPoint x="500" y="252.66666666666652" as="targetPoint" />
          </mxGeometry>
        </mxCell>
        <mxCell id="TnTFWZ-Hbo-qFbYyvlhM-23" value="172.16.120.1/29" style="text;html=1;whiteSpace=wrap;strokeColor=none;fillColor=none;align=center;verticalAlign=middle;rounded=0;" parent="1" vertex="1">
          <mxGeometry x="340" y="200" width="60" height="30" as="geometry" />
        </mxCell>
        <mxCell id="TnTFWZ-Hbo-qFbYyvlhM-29" value="172.16.101.2&lt;div&gt;port:22&lt;/div&gt;&lt;div&gt;red-dmz-host-1&lt;/div&gt;" style="rounded=0;whiteSpace=wrap;html=1;" parent="1" vertex="1">
          <mxGeometry x="190" y="320" width="95" height="50" as="geometry" />
        </mxCell>
        <mxCell id="TnTFWZ-Hbo-qFbYyvlhM-33" value="eth2" style="text;html=1;whiteSpace=wrap;strokeColor=none;fillColor=none;align=center;verticalAlign=middle;rounded=0;" parent="1" vertex="1">
          <mxGeometry x="270" y="235" width="60" height="30" as="geometry" />
        </mxCell>
        <mxCell id="TnTFWZ-Hbo-qFbYyvlhM-35" value="" style="endArrow=none;dashed=1;html=1;dashPattern=1 3;strokeWidth=2;rounded=0;" parent="1" source="TnTFWZ-Hbo-qFbYyvlhM-9" target="TnTFWZ-Hbo-qFbYyvlhM-34" edge="1">
          <mxGeometry width="50" height="50" relative="1" as="geometry">
            <mxPoint x="420" y="235" as="sourcePoint" />
            <mxPoint x="500" y="249" as="targetPoint" />
          </mxGeometry>
        </mxCell>
        <mxCell id="TnTFWZ-Hbo-qFbYyvlhM-34" value="eth1&lt;div&gt;&lt;br&gt;&lt;/div&gt;" style="text;html=1;whiteSpace=wrap;strokeColor=none;fillColor=none;align=center;verticalAlign=middle;rounded=0;" parent="1" vertex="1">
          <mxGeometry x="440" y="250" width="60" as="geometry" />
        </mxCell>
        <mxCell id="TnTFWZ-Hbo-qFbYyvlhM-64" value="172.16.120.9&lt;div&gt;172.16.120.18&lt;br&gt;&lt;div&gt;RED-IPS&lt;/div&gt;&lt;div&gt;22&lt;/div&gt;&lt;/div&gt;" style="rounded=0;whiteSpace=wrap;html=1;" parent="1" vertex="1">
          <mxGeometry x="680" y="150" width="100" height="60" as="geometry" />
        </mxCell>
        <mxCell id="TnTFWZ-Hbo-qFbYyvlhM-66" value="RED-POP&lt;div&gt;172.16.120.17&lt;/div&gt;" style="rounded=0;whiteSpace=wrap;html=1;" parent="1" vertex="1">
          <mxGeometry x="840" y="90" width="100" height="40" as="geometry" />
        </mxCell>
        <mxCell id="TnTFWZ-Hbo-qFbYyvlhM-69" value="eth1" style="text;html=1;whiteSpace=wrap;strokeColor=none;fillColor=none;align=center;verticalAlign=middle;rounded=0;" parent="1" vertex="1">
          <mxGeometry x="760" y="120" width="60" height="30" as="geometry" />
        </mxCell>
        <mxCell id="TnTFWZ-Hbo-qFbYyvlhM-74" value="eth0" style="text;html=1;whiteSpace=wrap;strokeColor=none;fillColor=none;align=center;verticalAlign=middle;rounded=0;" parent="1" vertex="1">
          <mxGeometry x="790" y="105" width="60" height="30" as="geometry" />
        </mxCell>
        <mxCell id="TnTFWZ-Hbo-qFbYyvlhM-88" style="edgeStyle=orthogonalEdgeStyle;rounded=0;orthogonalLoop=1;jettySize=auto;html=1;exitX=1;exitY=0.5;exitDx=0;exitDy=0;" parent="1" source="TnTFWZ-Hbo-qFbYyvlhM-77" target="TnTFWZ-Hbo-qFbYyvlhM-85" edge="1">
          <mxGeometry relative="1" as="geometry" />
        </mxCell>
        <mxCell id="TnTFWZ-Hbo-qFbYyvlhM-77" value="172.16.182.126/27" style="rounded=1;whiteSpace=wrap;html=1;" parent="1" vertex="1">
          <mxGeometry x="990" y="40" width="110" height="50" as="geometry" />
        </mxCell>
        <mxCell id="TnTFWZ-Hbo-qFbYyvlhM-78" value="eth1" style="text;html=1;whiteSpace=wrap;strokeColor=none;fillColor=none;align=center;verticalAlign=middle;rounded=0;" parent="1" vertex="1">
          <mxGeometry x="950" y="95" width="60" height="30" as="geometry" />
        </mxCell>
        <mxCell id="TnTFWZ-Hbo-qFbYyvlhM-79" value="REDHOSTS" style="text;html=1;whiteSpace=wrap;strokeColor=none;fillColor=none;align=center;verticalAlign=middle;rounded=0;" parent="1" vertex="1">
          <mxGeometry x="1015" y="90" width="60" height="30" as="geometry" />
        </mxCell>
        <mxCell id="TnTFWZ-Hbo-qFbYyvlhM-81" value="" style="endArrow=none;html=1;rounded=0;" parent="1" source="TnTFWZ-Hbo-qFbYyvlhM-66" edge="1">
          <mxGeometry width="50" height="50" relative="1" as="geometry">
            <mxPoint x="950" y="210" as="sourcePoint" />
            <mxPoint x="1000" y="160" as="targetPoint" />
          </mxGeometry>
        </mxCell>
        <mxCell id="TnTFWZ-Hbo-qFbYyvlhM-82" value="eth2" style="text;html=1;whiteSpace=wrap;strokeColor=none;fillColor=none;align=center;verticalAlign=middle;rounded=0;" parent="1" vertex="1">
          <mxGeometry x="910" y="140" width="60" height="30" as="geometry" />
        </mxCell>
        <mxCell id="TnTFWZ-Hbo-qFbYyvlhM-83" value="172.16.182.106&lt;div&gt;22&lt;/div&gt;" style="rounded=0;whiteSpace=wrap;html=1;" parent="1" vertex="1">
          <mxGeometry x="1155" y="-100" width="120" height="50" as="geometry" />
        </mxCell>
        <mxCell id="TnTFWZ-Hbo-qFbYyvlhM-84" value="172.16.182.110&lt;div&gt;22/80&lt;/div&gt;" style="rounded=0;whiteSpace=wrap;html=1;" parent="1" vertex="1">
          <mxGeometry x="1150" y="-30" width="120" height="50" as="geometry" />
        </mxCell>
        <mxCell id="TnTFWZ-Hbo-qFbYyvlhM-85" value="172.16.182.114&lt;div&gt;22&lt;/div&gt;" style="rounded=0;whiteSpace=wrap;html=1;" parent="1" vertex="1">
          <mxGeometry x="1151" y="41" width="120" height="50" as="geometry" />
        </mxCell>
        <mxCell id="TnTFWZ-Hbo-qFbYyvlhM-86" value="172.16.182.118&lt;div&gt;22&lt;/div&gt;" style="rounded=0;whiteSpace=wrap;html=1;" parent="1" vertex="1">
          <mxGeometry x="1150" y="110" width="120" height="50" as="geometry" />
        </mxCell>
        <mxCell id="TnTFWZ-Hbo-qFbYyvlhM-87" value="" style="endArrow=none;html=1;rounded=0;" parent="1" source="TnTFWZ-Hbo-qFbYyvlhM-77" edge="1">
          <mxGeometry width="50" height="50" relative="1" as="geometry">
            <mxPoint x="1120" y="170" as="sourcePoint" />
            <mxPoint x="1170" y="120" as="targetPoint" />
          </mxGeometry>
        </mxCell>
        <mxCell id="TnTFWZ-Hbo-qFbYyvlhM-90" value="" style="endArrow=none;html=1;rounded=0;" parent="1" source="TnTFWZ-Hbo-qFbYyvlhM-77" target="TnTFWZ-Hbo-qFbYyvlhM-84" edge="1">
          <mxGeometry width="50" height="50" relative="1" as="geometry">
            <mxPoint x="950" y="210" as="sourcePoint" />
            <mxPoint x="1000" y="160" as="targetPoint" />
          </mxGeometry>
        </mxCell>
        <mxCell id="TnTFWZ-Hbo-qFbYyvlhM-91" value="" style="endArrow=none;html=1;rounded=0;exitX=0;exitY=0.5;exitDx=0;exitDy=0;" parent="1" source="TnTFWZ-Hbo-qFbYyvlhM-83" target="TnTFWZ-Hbo-qFbYyvlhM-77" edge="1">
          <mxGeometry width="50" height="50" relative="1" as="geometry">
            <mxPoint x="950" y="210" as="sourcePoint" />
            <mxPoint x="1000" y="160" as="targetPoint" />
          </mxGeometry>
        </mxCell>
        <mxCell id="TnTFWZ-Hbo-qFbYyvlhM-92" value="172.16.140.5&lt;div&gt;REDPOP2&lt;/div&gt;&lt;div&gt;REDINTDMZ&lt;/div&gt;" style="rounded=0;whiteSpace=wrap;html=1;" parent="1" vertex="1">
          <mxGeometry x="980" y="260" width="120" height="60" as="geometry" />
        </mxCell>
        <mxCell id="TnTFWZ-Hbo-qFbYyvlhM-93" value="" style="endArrow=none;dashed=1;html=1;dashPattern=1 3;strokeWidth=2;rounded=0;entryX=0.5;entryY=1;entryDx=0;entryDy=0;exitX=0.5;exitY=0;exitDx=0;exitDy=0;" parent="1" source="TnTFWZ-Hbo-qFbYyvlhM-92" edge="1">
          <mxGeometry width="50" height="50" relative="1" as="geometry">
            <mxPoint x="950" y="210" as="sourcePoint" />
            <mxPoint x="1035" y="200" as="targetPoint" />
          </mxGeometry>
        </mxCell>
        <mxCell id="TnTFWZ-Hbo-qFbYyvlhM-95" value="172.16.140.6/29" style="ellipse;whiteSpace=wrap;html=1;aspect=fixed;" parent="1" vertex="1">
          <mxGeometry x="970" y="150" width="80" height="80" as="geometry" />
        </mxCell>
        <mxCell id="H2GqUTHfgzoTLaugNAoa-1" value="" style="shape=stencil(fZbdcgIhDIWfZm8zQAg/17Z9j85U606tdqz9e/tmZ0c0uJ47xP0I5JwEBl59bp8/1kNwn6fj4W39M76ctgM/DCGM++36OJ50NPDjwKvN4bh+PR6+9i/z74/n6ctp9H74nlb4nbmSKZeJCu5vngmZ6jzzNAO7cX8FVKEsBuBKrgKg9oAE8gkCbLeUhEoEQKSUDZDLeWYRKIl8MEDRmHwfyBrBG6Amyu4+kDxxMoB3jhwgYu7TVAsVkFcWCs4CTBEoF4RctKeOxHIf8IXYpikHikAIf+MNUW94AGSSaoAoFIE3AlOyeWU+p2E5S9yfQZcQILVuQOwZdJNoS9Ls3wA5u2XZTIHECqeJ9kDpSaauRiNVcAY1QhdBzeLBli5WazpkSsBLV25uRaqWRyFawTQzRRIQYirJzq5atkBqLfouwqUxLBepthWb10vrWZY6UOAeyKCCtDV625mm9gmUC4Wc3VLJMMIE1BsA2FW9JraVlQB7n3c9oMKhCLEvIM1zBPZ25/umNQ1tVEC2G+fFCC8g398O2hNQuQlVu752DBfA+q0ptnqO5JFmeuIuo9DY7KjY71UxdJV4EntifPWorW++R/dC4t7V3DlIB5cHx2bc7eb3yvX//QNFp+bHDT/+Aw==);lineShape=1;strokeColor=default;" vertex="1" parent="1">
          <mxGeometry x="1993.2265361415857" y="-147.4156251382692" width="15.575132573718141" height="15.550787387858994" as="geometry" />
        </mxCell>
        <mxCell id="H2GqUTHfgzoTLaugNAoa-2" value="172.16.140.62/27&lt;div&gt;REDINTDMZ2&lt;/div&gt;" style="ellipse;whiteSpace=wrap;html=1;aspect=fixed;" vertex="1" parent="1">
          <mxGeometry x="1180" y="252.5" width="90" height="90" as="geometry" />
        </mxCell>
        <mxCell id="H2GqUTHfgzoTLaugNAoa-3" value="" style="ellipse;whiteSpace=wrap;html=1;aspect=fixed;" vertex="1" parent="1">
          <mxGeometry x="1030" y="390" width="40" height="40" as="geometry" />
        </mxCell>
        <mxCell id="H2GqUTHfgzoTLaugNAoa-4" value="172.16.140.5/29" style="text;html=1;whiteSpace=wrap;strokeColor=none;fillColor=none;align=center;verticalAlign=middle;rounded=0;" vertex="1" parent="1">
          <mxGeometry x="1020" y="440" width="60" height="30" as="geometry" />
        </mxCell>
        <mxCell id="H2GqUTHfgzoTLaugNAoa-5" value="" style="endArrow=none;dashed=1;html=1;dashPattern=1 3;strokeWidth=2;rounded=0;entryX=1;entryY=0.5;entryDx=0;entryDy=0;" edge="1" parent="1" source="H2GqUTHfgzoTLaugNAoa-2" target="TnTFWZ-Hbo-qFbYyvlhM-92">
          <mxGeometry width="50" height="50" relative="1" as="geometry">
            <mxPoint x="830" y="250" as="sourcePoint" />
            <mxPoint x="880" y="200" as="targetPoint" />
          </mxGeometry>
        </mxCell>
        <mxCell id="H2GqUTHfgzoTLaugNAoa-6" value="" style="endArrow=none;dashed=1;html=1;dashPattern=1 3;strokeWidth=2;rounded=0;" edge="1" parent="1" source="TnTFWZ-Hbo-qFbYyvlhM-92" target="H2GqUTHfgzoTLaugNAoa-3">
          <mxGeometry width="50" height="50" relative="1" as="geometry">
            <mxPoint x="830" y="250" as="sourcePoint" />
            <mxPoint x="880" y="200" as="targetPoint" />
          </mxGeometry>
        </mxCell>
        <mxCell id="H2GqUTHfgzoTLaugNAoa-7" value="eth0" style="text;html=1;whiteSpace=wrap;strokeColor=none;fillColor=none;align=center;verticalAlign=middle;rounded=0;" vertex="1" parent="1">
          <mxGeometry x="980" y="345" width="60" height="30" as="geometry" />
        </mxCell>
        <mxCell id="H2GqUTHfgzoTLaugNAoa-8" value="eth1" style="text;html=1;whiteSpace=wrap;strokeColor=none;fillColor=none;align=center;verticalAlign=middle;rounded=0;" vertex="1" parent="1">
          <mxGeometry x="1110" y="250" width="60" height="30" as="geometry" />
        </mxCell>
        <mxCell id="H2GqUTHfgzoTLaugNAoa-9" value="172.16.140.33&lt;div&gt;22 , 80&lt;/div&gt;" style="rounded=0;whiteSpace=wrap;html=1;" vertex="1" parent="1">
          <mxGeometry x="1330" y="220" width="120" height="45" as="geometry" />
        </mxCell>
        <mxCell id="H2GqUTHfgzoTLaugNAoa-10" value="172.16.140.35&lt;div&gt;22&lt;/div&gt;&lt;div&gt;redintDMZ2host2&lt;/div&gt;" style="rounded=0;whiteSpace=wrap;html=1;" vertex="1" parent="1">
          <mxGeometry x="1340" y="330" width="110" height="70" as="geometry" />
        </mxCell>
        <mxCell id="H2GqUTHfgzoTLaugNAoa-11" value="" style="endArrow=none;html=1;rounded=0;entryX=0;entryY=0.5;entryDx=0;entryDy=0;" edge="1" parent="1" source="H2GqUTHfgzoTLaugNAoa-2" target="H2GqUTHfgzoTLaugNAoa-9">
          <mxGeometry width="50" height="50" relative="1" as="geometry">
            <mxPoint x="830" y="250" as="sourcePoint" />
            <mxPoint x="880" y="200" as="targetPoint" />
          </mxGeometry>
        </mxCell>
        <mxCell id="H2GqUTHfgzoTLaugNAoa-12" value="" style="endArrow=none;html=1;rounded=0;entryX=0;entryY=0.25;entryDx=0;entryDy=0;" edge="1" parent="1" source="H2GqUTHfgzoTLaugNAoa-2" target="H2GqUTHfgzoTLaugNAoa-10">
          <mxGeometry width="50" height="50" relative="1" as="geometry">
            <mxPoint x="1290" y="375" as="sourcePoint" />
            <mxPoint x="1353" y="349" as="targetPoint" />
          </mxGeometry>
        </mxCell>
        <mxCell id="H2GqUTHfgzoTLaugNAoa-13" value="RED-INFRA&lt;div&gt;172.16.120.2&lt;/div&gt;&lt;div&gt;22&lt;/div&gt;" style="ellipse;whiteSpace=wrap;html=1;aspect=fixed;" vertex="1" parent="1">
          <mxGeometry x="385" y="60" width="80" height="80" as="geometry" />
        </mxCell>
        <mxCell id="H2GqUTHfgzoTLaugNAoa-19" value="eth1" style="text;html=1;whiteSpace=wrap;strokeColor=none;fillColor=none;align=center;verticalAlign=middle;rounded=0;" vertex="1" parent="1">
          <mxGeometry x="400" y="130" width="60" height="30" as="geometry" />
        </mxCell>
        <mxCell id="H2GqUTHfgzoTLaugNAoa-20" value="" style="endArrow=none;html=1;rounded=0;entryX=0;entryY=0.5;entryDx=0;entryDy=0;exitX=0.75;exitY=0;exitDx=0;exitDy=0;" edge="1" parent="1" source="TnTFWZ-Hbo-qFbYyvlhM-29" target="TnTFWZ-Hbo-qFbYyvlhM-9">
          <mxGeometry width="50" height="50" relative="1" as="geometry">
            <mxPoint x="720" y="370" as="sourcePoint" />
            <mxPoint x="515" y="400" as="targetPoint" />
          </mxGeometry>
        </mxCell>
        <mxCell id="H2GqUTHfgzoTLaugNAoa-22" value="eth2" style="text;html=1;whiteSpace=wrap;strokeColor=none;fillColor=none;align=center;verticalAlign=middle;rounded=0;" vertex="1" parent="1">
          <mxGeometry x="250" y="290" width="60" height="30" as="geometry" />
        </mxCell>
        <mxCell id="H2GqUTHfgzoTLaugNAoa-23" value="eth0" style="text;html=1;whiteSpace=wrap;strokeColor=none;fillColor=none;align=center;verticalAlign=middle;rounded=0;" vertex="1" parent="1">
          <mxGeometry x="640" y="215" width="60" height="30" as="geometry" />
        </mxCell>
        <mxCell id="H2GqUTHfgzoTLaugNAoa-24" value="" style="endArrow=none;html=1;rounded=0;" edge="1" parent="1" source="TnTFWZ-Hbo-qFbYyvlhM-64" target="TnTFWZ-Hbo-qFbYyvlhM-66">
          <mxGeometry width="50" height="50" relative="1" as="geometry">
            <mxPoint x="840" y="250" as="sourcePoint" />
            <mxPoint x="890" y="200" as="targetPoint" />
          </mxGeometry>
        </mxCell>
        <mxCell id="H2GqUTHfgzoTLaugNAoa-25" value="172.16.120.9&#xa;172.16.120.18&#xa;RED-IPS&#xa;22" style="ellipse;whiteSpace=wrap;html=1;aspect=fixed;" vertex="1" parent="1">
          <mxGeometry x="687.5" y="135" width="85" height="85" as="geometry" />
        </mxCell>
        <mxCell id="H2GqUTHfgzoTLaugNAoa-26" value="RED-POP&lt;br&gt;172.16.120.17&lt;div&gt;22&lt;/div&gt;" style="ellipse;whiteSpace=wrap;html=1;aspect=fixed;" vertex="1" parent="1">
          <mxGeometry x="850" y="71" width="80" height="80" as="geometry" />
        </mxCell>
        <mxCell id="H2GqUTHfgzoTLaugNAoa-27" value="eth0" style="text;html=1;whiteSpace=wrap;strokeColor=none;fillColor=none;align=center;verticalAlign=middle;rounded=0;" vertex="1" parent="1">
          <mxGeometry x="380" y="180" width="60" height="30" as="geometry" />
        </mxCell>
        <mxCell id="H2GqUTHfgzoTLaugNAoa-28" value="" style="endArrow=none;html=1;rounded=0;" edge="1" parent="1" target="H2GqUTHfgzoTLaugNAoa-13">
          <mxGeometry width="50" height="50" relative="1" as="geometry">
            <mxPoint x="390" y="200" as="sourcePoint" />
            <mxPoint x="510" y="310" as="targetPoint" />
          </mxGeometry>
        </mxCell>
      </root>
    </mxGraphModel>
  </diagram>
</mxfile>
